:SAMPLES-PER-SECOND 30
:FULLY-SPECIFIED
:DEGREES
65
root  1.88744 36.8682 -0.452261 39.6055 80.8232 38.4868
RightUpLeg  14.9569 2.31489 -8.20442
RightLeg  34.0583 7.83937 -1.47294
RightFoot  26.5322 -2.68069 7.41387
RightToes  5.82063e-011 -1.59028e-015 9.93923e-017
Spine  12.6742 3.70568 -1.04648
Spine1  4.29106 5.3453 -10.6099
HEad  -31.2778 -3.41825 9.12748
LeftShoulder1  9.93923e-017 0 1.22299e-017
LeftArm  -8.90141 52.0318 -61.595
LeftForeArm  10.7549 -1.69398 -4.65426
LeftHand  1.06686 8.04163 -7.76249
RightShoulder  1.98785e-016 -4.96962e-017 1.55301e-017
RightArm  24.3209 -4.64712 85.9741
RightForeArm  -37.2115 29.9698 -27.2165
RightHand  1.87642 -12.3995 -13.4783
LeftUpLeg  -30.6397 -3.0218 -7.59297
LeftLeg  31.1518 -1.56758 5.70216
LeftFoot  -3.83745 0.0853876 -1.12894
LeftToes  2.21007e-009 5.55039e-011 -9.07147e-011
66
root  3.5763 36.9292 -0.494086 48.0521 80.9307 47.8437
RightUpLeg  10.3207 2.3609 -8.83409
RightLeg  42.8566 7.58943 -2.52302
RightFoot  27.7337 -2.39825 6.44517
RightToes  5.82063e-011 -1.59028e-015 9.93923e-017
Spine  11.6442 2.99908 -3.96005
Spine1  5.48607 3.86576 -9.24708
HEad  -29.8811 -2.19418 9.24163
LeftShoulder1  9.93923e-017 0 1.22299e-017
LeftArm  -11.4225 44.772 -67.303
LeftForeArm  9.2238 -2.15499 -5.2636
LeftHand  1.10972 8.64353 -8.10831
RightShoulder  1.98785e-016 -4.96962e-017 1.55301e-017
RightArm  25.6932 -11.2881 87.5697
RightForeArm  -38.3223 28.8845 -26.3593
RightHand  1.85039 -12.3092 -13.3612
LeftUpLeg  -27.3348 -3.41595 -9.18005
LeftLeg  32.5877 -1.84346 5.93698
LeftFoot  -7.68072 0.0198961 -0.872755
LeftToes  2.21007e-009 5.55039e-011 -9.07147e-011
67
root  5.31503 37.2298 -0.519532 51.9124 81.43 51.9441
RightUpLeg  4.23347 2.55356 -8.04131
RightLeg  50.259 7.85892 -3.13717
RightFoot  22.7287 -1.68812 5.19768
RightToes  5.82063e-011 -1.59028e-015 9.93923e-017
Spine  10.2732 2.36658 -5.24184
Spine1  6.04277 2.7642 -8.17276
HEad  -28.596 -1.21977 9.6671
LeftShoulder1  9.93923e-017 0 1.22299e-017
LeftArm  -11.9604 37.4108 -71.9401
LeftForeArm  3.92517 -2.14031 -6.26915
LeftHand  1.12553 8.59537 -6.36056
RightShoulder  1.98785e-016 -4.96962e-017 1.55301e-017
RightArm  28.0426 -18.813 88.545
RightForeArm  -41.0982 26.7007 -24.665
RightHand  1.85446 -12.3411 -13.3079
LeftUpLeg  -23.5331 -4.94796 -9.47142
LeftLeg  31.8244 -1.20291 6.1508
LeftFoot  -9.53956 0.00656358 -1.03313
LeftToes  2.21007e-009 5.55039e-011 -9.07147e-011
68
root  7.09603 37.687 -0.533836 50.9911 82.5636 51.4325
RightUpLeg  -1.78863 2.80307 -6.17977
RightLeg  54.9822 8.26864 -3.27746
RightFoot  15.7779 -1.06495 4.14932
RightToes  5.82063e-011 -1.59028e-015 9.93923e-017
Spine  9.52825 1.58045 -5.34858
Spine1  5.93758 1.62148 -6.99915
HEad  -27.5562 -0.0354465 9.4055
LeftShoulder1  9.93923e-017 0 1.22299e-017
LeftArm  -8.39935 31.3644 -75.6009
LeftForeArm  -5.93561 -7.72154 -4.97048
LeftHand  1.06318 7.70889 -3.2812
RightShoulder  1.98785e-016 -4.96962e-017 1.55301e-017
RightArm  34.3583 -25.9827 89.1938
RightForeArm  -47.839 23.2444 -22.4551
RightHand  1.79314 -12.3254 -12.2535
LeftUpLeg  -18.8603 -6.81768 -8.79261
LeftLeg  29.7229 -0.0777464 6.22345
LeftFoot  -10.7216 -0.00345753 -1.18011
LeftToes  2.21007e-009 5.55039e-011 -9.07147e-011
69
root  8.89279 38.1728 -0.528421 46.9987 84.1364 48.0296
RightUpLeg  -7.29081 2.65238 -3.97545
RightLeg  56.5504 8.27992 -3.52348
RightFoot  10.2756 -0.743228 3.61007
RightToes  5.82063e-011 -1.59028e-015 9.93923e-017
Spine  9.31501 0.534166 -5.38512
Spine1  5.56688 0.102232 -5.15084
HEad  -26.936 1.73405 8.28299
LeftShoulder1  9.93923e-017 0 1.22299e-017
LeftArm  8.69738 26.753 -78.7554
LeftForeArm  -29.1456 -19.1227 5.5522
LeftHand  0.953186 6.76588 -0.66419
RightShoulder  1.98785e-016 -4.96962e-017 1.55301e-017
RightArm  38.7826 -31.9325 89.0761
RightForeArm  -50.9711 20.6842 -17.3733
RightHand  1.61004 -12.0151 -9.91013
LeftUpLeg  -13.6057 -8.38615 -7.67273
LeftLeg  26.8232 1.14291 5.95454
LeftFoot  -11.8984 -0.0201225 -1.08177
LeftToes  2.21007e-009 5.55039e-011 -9.07147e-011
70
root  10.706 38.5946 -0.493101 41.8955 86.0626 43.1675
RightUpLeg  -12.5553 1.6781 -1.85938
RightLeg  55.2337 7.93819 -3.83353
RightFoot  6.18693 -0.562151 3.32371
RightToes  5.82063e-011 -1.59028e-015 9.93923e-017
Spine  8.95628 -0.736295 -5.94083
Spine1  5.10577 -1.77689 -2.27061
HEad  -26.5208 3.70696 6.98314
LeftShoulder1  9.93923e-017 0 1.22299e-017
LeftArm  19.403 22.3563 -80.2481
LeftForeArm  -43.4743 -27.6009 17.1695
LeftHand  0.889569 6.34931 0.462592
RightShoulder  1.98785e-016 -4.96962e-017 1.55301e-017
RightArm  35.1886 -37.0871 87.3527
RightForeArm  -43.4449 19.3083 -8.95563
RightHand  1.41983 -11.6261 -7.41033
LeftUpLeg  -8.59234 -8.1805 -6.46191
LeftLeg  23.3475 0.232118 5.13225
LeftFoot  -12.5358 -0.0284623 -1.0815
LeftToes  2.21007e-009 5.55039e-011 -9.07147e-011
71
root  12.5032 38.9116 -0.424504 63.8688 88.2213 65.1719
RightUpLeg  -17.306 -0.0100153 -0.116307
RightLeg  51.4739 7.73342 -3.49552
RightFoot  2.7501 -0.423717 3.04995
RightToes  5.82063e-011 -1.59028e-015 9.93923e-017
Spine  8.66685 -2.02217 -7.12042
Spine1  4.53642 -3.75154 1.44963
HEad  -25.9907 5.08503 5.98166
LeftShoulder1  9.93923e-017 0 1.22299e-017
LeftArm  14.5977 16.9545 -80.0275
LeftForeArm  -37.449 -33.9121 21.2637
LeftHand  0.882625 6.30062 0.290175
RightShoulder  1.98785e-016 -4.96962e-017 1.55301e-017
RightArm  30.0641 -42.6576 83.9363
RightForeArm  -34.2287 17.4725 -2.70635
RightHand  1.34358 -11.601 -5.87778
LeftUpLeg  -4.11722 -5.80703 -5.16493
LeftLeg  19.8706 -3.85548 3.89645
LeftFoot  -12.439 -0.0238879 -1.4232
LeftToes  2.21007e-009 5.55039e-011 -9.07147e-011
